<svg width="175" height="56" viewBox="0 0 175 56" fill="none" xmlns="http://www.w3.org/2000/svg">
<g clip-path="url(#clip0_16875_1102)">
<path d="M134.155 35.71H132.79V32.7741C132.813 32.2776 132.644 31.7912 132.317 31.4151C132.154 31.2451 131.958 31.1098 131.74 31.0174C131.523 30.925 131.289 30.8773 131.053 30.8773C130.817 30.8773 130.583 30.925 130.366 31.0174C130.148 31.1098 129.952 31.2451 129.789 31.4151C129.462 31.7912 129.293 32.2776 129.316 32.7741V35.71H127.951C127.505 35.6859 127.067 35.8324 126.726 36.1195C126.571 36.2614 126.448 36.4356 126.368 36.6299C126.288 36.8241 126.252 37.0336 126.262 37.2433C126.252 37.4541 126.286 37.6647 126.363 37.8614C126.44 38.0581 126.558 38.2364 126.709 38.3846C127.053 38.6791 127.498 38.829 127.951 38.8027H129.316V46.565C129.294 47.0614 129.463 47.5475 129.789 47.9241C130.126 48.2545 130.58 48.4397 131.053 48.4397C131.526 48.4397 131.98 48.2545 132.317 47.9241C132.643 47.5475 132.812 47.0614 132.79 46.565V38.8027H134.155C134.603 38.8247 135.043 38.6786 135.389 38.3933C135.543 38.251 135.664 38.0764 135.743 37.8821C135.821 37.6878 135.856 37.4786 135.844 37.2694C135.855 37.0599 135.82 36.8505 135.743 36.6551C135.667 36.4598 135.549 36.2831 135.397 36.1369C135.055 35.8393 134.609 35.6862 134.155 35.71ZM91.2099 35.5881C90.9678 35.5873 90.7282 35.6365 90.5062 35.7327C90.2842 35.8288 90.0847 35.9698 89.9202 36.1466C89.7557 36.3235 89.6299 36.5324 89.5507 36.7602C89.4714 36.9879 89.4405 37.2296 89.4599 37.4698V42.4879C89.4599 44.5352 88.5849 45.598 86.9311 45.598C85.2774 45.598 84.3061 44.509 84.3061 42.7579V37.4437C84.3217 37.2055 84.288 36.9667 84.207 36.7421C84.1261 36.5174 83.9997 36.3117 83.8356 36.1377C83.6715 35.9638 83.4733 35.8252 83.2532 35.7306C83.0331 35.6361 82.7958 35.5875 82.5561 35.5881C82.314 35.5873 82.0744 35.6365 81.8524 35.7327C81.6304 35.8288 81.4309 35.9698 81.2664 36.1466C81.102 36.3235 80.9761 36.5324 80.8969 36.7602C80.8177 36.9879 80.7868 37.2296 80.8061 37.4698V43.6814C80.8061 46.7218 82.6436 48.6559 85.9686 48.6559C86.6238 48.7004 87.2804 48.5938 87.8874 48.3445C88.4944 48.0952 89.0355 47.7098 89.4686 47.2184C89.5484 47.5955 89.7584 47.9328 90.0622 48.1716C90.366 48.4104 90.7442 48.5355 91.1311 48.5252C91.3724 48.5259 91.6112 48.4769 91.8326 48.3812C92.0539 48.2856 92.253 48.1455 92.4174 47.9696C92.5817 47.7937 92.7078 47.5858 92.7876 47.3591C92.8674 47.1324 92.8992 46.8917 92.8811 46.6521V37.4437C92.8967 37.2055 92.863 36.9667 92.782 36.7421C92.7011 36.5174 92.5747 36.3117 92.4106 36.1377C92.2465 35.9638 92.0483 35.8252 91.8282 35.7306C91.6081 35.6361 91.3708 35.5875 91.1311 35.5881H91.2099ZM122.754 30.8923C122.295 30.885 121.852 31.057 121.52 31.3715C121.36 31.5281 121.234 31.7155 121.15 31.9222C121.066 32.129 121.025 32.3507 121.03 32.5737C121.023 32.801 121.063 33.0272 121.147 33.2384C121.231 33.4497 121.358 33.6416 121.52 33.8021C121.852 34.1166 122.295 34.2886 122.754 34.2813C122.984 34.2872 123.212 34.2479 123.427 34.1657C123.642 34.0835 123.838 33.9599 124.005 33.8021C124.169 33.6433 124.299 33.4519 124.385 33.2404C124.47 33.0289 124.511 32.8018 124.504 32.5737C124.509 32.3498 124.467 32.1273 124.381 31.9203C124.296 31.7133 124.167 31.5264 124.005 31.3715C123.838 31.2137 123.642 31.0901 123.427 31.0079C123.212 30.9257 122.984 30.8864 122.754 30.8923ZM122.754 35.71C122.518 35.6999 122.283 35.7415 122.065 35.8318C121.848 35.9222 121.652 36.059 121.494 36.2327C121.168 36.6093 120.999 37.0954 121.021 37.5918V46.565C120.999 47.0614 121.168 47.5475 121.494 47.9241C121.831 48.2545 122.285 48.4397 122.758 48.4397C123.231 48.4397 123.685 48.2545 124.022 47.9241C124.348 47.5475 124.517 47.0614 124.495 46.565V37.5831C124.517 37.0867 124.348 36.6006 124.022 36.224C123.862 36.0496 123.666 35.9124 123.446 35.8221C123.227 35.7318 122.991 35.6905 122.754 35.7013V35.71ZM160.562 36.0846C159.857 35.5988 159.013 35.3542 158.156 35.3877C157.548 35.3664 156.942 35.4672 156.373 35.6842C155.805 35.9013 155.287 36.23 154.849 36.6509C154.723 36.3409 154.502 36.0782 154.218 35.8999C153.933 35.7217 153.6 35.637 153.265 35.6577C153.023 35.657 152.783 35.7062 152.561 35.8024C152.339 35.8985 152.14 36.0395 151.975 36.2163C151.811 36.3932 151.685 36.6021 151.606 36.8299C151.526 37.0576 151.496 37.2993 151.515 37.5395V46.6609C151.515 47.123 151.699 47.5661 152.027 47.8929C152.356 48.2197 152.801 48.4032 153.265 48.4032C153.729 48.4032 154.174 48.2197 154.502 47.8929C154.831 47.5661 155.015 47.123 155.015 46.6609V41.5905C155.015 39.8482 155.811 38.5065 157.421 38.5065C157.819 38.5089 158.211 38.6013 158.567 38.7766C158.894 38.9282 159.248 39.0112 159.609 39.0205C159.829 39.0291 160.049 38.9922 160.255 38.912C160.461 38.8319 160.647 38.7102 160.803 38.5548C160.959 38.3994 161.082 38.2134 161.162 38.0087C161.243 37.804 161.28 37.5849 161.271 37.3653C161.265 37.1164 161.199 36.8727 161.079 36.6544C160.958 36.4362 160.787 36.2498 160.58 36.1108L160.562 36.0846ZM165.252 40.4232C165.451 39.7561 165.876 39.1789 166.456 38.7908C167.036 38.4028 167.733 38.2283 168.429 38.2974C169.102 38.2361 169.774 38.4167 170.325 38.8067C170.875 39.1967 171.267 39.7701 171.43 40.4232H165.252ZM168.499 35.3615C167.599 35.3245 166.7 35.4713 165.859 35.7931C165.018 36.1148 164.253 36.6046 163.609 37.2323C162.966 37.86 162.458 38.6122 162.118 39.4427C161.777 40.2732 161.611 41.1642 161.63 42.061C161.63 45.9378 164.552 48.7081 168.577 48.7081C170.371 48.7789 172.132 48.2071 173.539 47.0965C173.752 46.9182 173.922 46.6955 174.039 46.444C174.155 46.1925 174.215 45.9185 174.212 45.6416C174.208 45.4334 174.162 45.2281 174.077 45.0378C173.992 44.8475 173.87 44.676 173.717 44.5333C173.565 44.3906 173.386 44.2795 173.19 44.2065C172.994 44.1335 172.785 44.1001 172.576 44.1083C172.323 44.1064 172.074 44.161 171.845 44.268C171.616 44.3751 171.415 44.5319 171.255 44.7268C170.899 45.0651 170.479 45.3288 170.019 45.5024C169.559 45.676 169.069 45.7559 168.577 45.7374C166.714 45.7374 165.401 44.7268 165.226 43.1238H173.416C174.484 43.1238 174.93 42.5837 174.93 41.2943C174.93 37.9141 172.147 35.3441 168.499 35.3441V35.3615ZM78.5661 30.9882H69.8161C69.5326 30.9488 69.2438 30.9756 68.9725 31.0665C68.7012 31.1573 68.4548 31.3097 68.2529 31.5117C68.0509 31.7136 67.8988 31.9596 67.8087 32.2301C67.7186 32.5006 67.6929 32.7882 67.7336 33.0703V46.4605C67.7194 46.7189 67.757 46.9775 67.8441 47.2213C67.9312 47.465 68.0662 47.6891 68.2411 47.8805C68.609 48.216 69.0898 48.4021 69.5886 48.4021C70.0875 48.4021 70.5683 48.216 70.9361 47.8805C71.2856 47.4852 71.4648 46.9689 71.4349 46.4431V41.939H77.2974C77.7648 41.9646 78.2254 41.8189 78.5924 41.5296C78.7536 41.3805 78.8796 41.1977 78.9613 40.9943C79.043 40.791 79.0784 40.5721 79.0649 40.3535C79.0769 40.1319 79.0418 39.9102 78.9619 39.703C78.882 39.4959 78.759 39.3078 78.6011 39.1512C78.2387 38.8458 77.7711 38.6927 77.2974 38.7243H71.5049V34.4729H78.6361C79.1382 34.5008 79.6312 34.3319 80.0099 34.0025C80.1752 33.8404 80.3065 33.6471 80.3962 33.434C80.4858 33.2209 80.532 32.9921 80.532 32.761C80.532 32.53 80.4858 32.3012 80.3962 32.0881C80.3065 31.875 80.1752 31.6817 80.0099 31.5196C79.6281 31.1965 79.1365 31.0313 78.6361 31.0579L78.5661 30.9882ZM104.204 36.0585C103.499 35.5726 102.654 35.328 101.797 35.3615C101.189 35.3402 100.583 35.4411 100.015 35.6581C99.4463 35.8751 98.9278 36.2039 98.4899 36.6248C98.3639 36.3148 98.1431 36.052 97.8589 35.8738C97.5747 35.6956 97.2414 35.6108 96.9061 35.6316C96.664 35.6308 96.4244 35.6801 96.2024 35.7762C95.9804 35.8724 95.7809 36.0133 95.6164 36.1902C95.452 36.3671 95.3261 36.576 95.2469 36.8037C95.1677 37.0315 95.1368 37.2731 95.1561 37.5134V46.626C95.1561 47.0881 95.3405 47.5313 95.6687 47.8581C95.9969 48.1848 96.442 48.3684 96.9061 48.3684C97.3703 48.3684 97.8154 48.1848 98.1436 47.8581C98.4718 47.5313 98.6561 47.0881 98.6561 46.626V41.5557C98.6561 39.8133 99.4524 38.4717 101.062 38.4717C101.46 38.4741 101.852 38.5664 102.209 38.7418C102.535 38.8934 102.89 38.9764 103.25 38.9857C103.471 38.9943 103.691 38.9573 103.896 38.8772C104.102 38.797 104.288 38.6754 104.445 38.52C104.601 38.3645 104.723 38.1786 104.803 37.9739C104.884 37.7692 104.921 37.5501 104.912 37.3304C104.907 37.0814 104.841 36.8374 104.721 36.619C104.6 36.4007 104.429 36.2144 104.221 36.0759L104.204 36.0585ZM147.901 35.649C147.659 35.6483 147.419 35.6975 147.197 35.7937C146.975 35.8898 146.776 36.0308 146.611 36.2076C146.447 36.3845 146.321 36.5934 146.242 36.8211C146.163 37.0489 146.132 37.2905 146.151 37.5308V42.5488C146.151 44.5961 145.276 45.659 143.622 45.659C141.969 45.659 140.997 44.57 140.997 42.8189V37.5047C141.021 37.2647 140.993 37.0225 140.915 36.7942C140.837 36.566 140.711 36.3569 140.546 36.1812C140.38 36.0054 140.178 35.867 139.954 35.7752C139.73 35.6834 139.489 35.6404 139.247 35.649C139.005 35.6483 138.766 35.6975 138.544 35.7937C138.322 35.8898 138.122 36.0308 137.958 36.2076C137.793 36.3845 137.667 36.5934 137.588 36.8211C137.509 37.0489 137.478 37.2905 137.497 37.5308V43.6814C137.497 46.7218 139.335 48.6559 142.66 48.6559C143.323 48.7073 143.99 48.6041 144.607 48.3546C145.223 48.1051 145.773 47.7161 146.212 47.2184C146.292 47.5955 146.502 47.9328 146.806 48.1716C147.11 48.4104 147.488 48.5355 147.875 48.5252C148.116 48.5259 148.355 48.4769 148.576 48.3812C148.798 48.2856 148.997 48.1455 149.161 47.9696C149.325 47.7937 149.452 47.5858 149.531 47.3591C149.611 47.1324 149.643 46.8917 149.625 46.6521V37.4437C149.649 37.2038 149.621 36.9615 149.543 36.7333C149.465 36.505 149.339 36.2959 149.173 36.1202C149.007 35.9444 148.806 35.806 148.582 35.7142C148.358 35.6224 148.117 35.5794 147.875 35.5881L147.901 35.649ZM113.837 35.318C113.097 35.2693 112.354 35.3882 111.666 35.6659C110.978 35.9435 110.363 36.3726 109.865 36.921C109.789 36.5399 109.581 36.1975 109.277 35.9538C108.973 35.7101 108.593 35.5806 108.202 35.5881C107.96 35.5873 107.721 35.6365 107.499 35.7327C107.277 35.8288 107.077 35.9698 106.913 36.1466C106.748 36.3235 106.622 36.5324 106.543 36.7602C106.464 36.9879 106.433 37.2296 106.452 37.4698V46.5825C106.437 46.8206 106.471 47.0594 106.551 47.2841C106.632 47.5087 106.759 47.7144 106.923 47.8884C107.087 48.0624 107.285 48.2009 107.505 48.2955C107.725 48.3901 107.963 48.4386 108.202 48.4381C108.444 48.4388 108.682 48.3897 108.904 48.2941C109.125 48.1985 109.324 48.0583 109.489 47.8825C109.653 47.7066 109.779 47.4987 109.859 47.272C109.939 47.0453 109.97 46.8046 109.952 46.565V41.547C109.952 39.6391 111.072 38.4107 112.857 38.4107C114.642 38.4107 115.544 39.5171 115.544 41.425V46.5825C115.544 47.0446 115.728 47.4877 116.056 47.8145C116.384 48.1413 116.83 48.3248 117.294 48.3248C117.758 48.3248 118.203 48.1413 118.531 47.8145C118.859 47.4877 119.044 47.0446 119.044 46.5825V41.0156C119.044 37.5308 116.979 35.3354 113.881 35.3354L113.837 35.318ZM152.644 24.2278V16.448H154C154.445 16.4746 154.883 16.3312 155.225 16.0473C155.373 15.903 155.489 15.7289 155.564 15.5366C155.64 15.3443 155.673 15.1383 155.662 14.9322C155.673 14.7214 155.639 14.5108 155.562 14.3141C155.485 14.1174 155.367 13.9391 155.216 13.7909C154.88 13.4997 154.445 13.347 154 13.364H152.635V10.4194C152.657 9.92302 152.488 9.43697 152.162 9.06036C151.825 8.72996 151.371 8.54478 150.898 8.54478C150.425 8.54478 149.971 8.72996 149.634 9.06036C149.308 9.43697 149.139 9.92302 149.161 10.4194V13.364H147.796C147.347 13.3377 146.906 13.4843 146.562 13.7735C146.406 13.9212 146.286 14.1022 146.21 14.3029C146.134 14.5035 146.105 14.7187 146.125 14.9322C146.114 15.1417 146.148 15.3512 146.225 15.5465C146.302 15.7418 146.42 15.9185 146.571 16.0647C146.915 16.3592 147.361 16.5091 147.814 16.4829H149.179V24.2452C149.157 24.7416 149.326 25.2276 149.651 25.6042C149.814 25.7742 150.011 25.9095 150.228 26.0019C150.445 26.0943 150.679 26.142 150.916 26.142C151.152 26.142 151.386 26.0943 151.603 26.0019C151.82 25.9095 152.017 25.7742 152.18 25.6042C152.505 25.2276 152.674 24.7416 152.652 24.2452L152.644 24.2278ZM125.746 23.2956C125.3 23.322 124.854 23.2454 124.442 23.0716C124.031 22.8978 123.666 22.6315 123.375 22.2937C122.764 21.5627 122.452 20.6298 122.5 19.6801C122.461 18.7318 122.772 17.8021 123.375 17.0666C123.663 16.744 124.02 16.4897 124.42 16.3223C124.819 16.155 125.252 16.0789 125.685 16.0996C126.119 16.0774 126.552 16.1537 126.953 16.3228C127.353 16.4918 127.709 16.7491 127.995 17.0753C128.595 17.8124 128.905 18.741 128.87 19.6889C128.91 20.6374 128.599 21.5677 127.995 22.3024C127.707 22.6255 127.35 22.8802 126.95 23.0476C126.551 23.2149 126.118 23.2908 125.685 23.2694L125.746 23.2956ZM130.375 26.1008C130.609 26.108 130.841 26.0668 131.058 25.9799C131.275 25.8929 131.471 25.762 131.635 25.5955C131.968 25.2262 132.141 24.7409 132.116 24.2452V15.1238C132.138 14.6274 131.969 14.1414 131.644 13.7648C131.482 13.5934 131.284 13.4587 131.066 13.37C130.847 13.2813 130.611 13.2407 130.375 13.2508C130.039 13.221 129.703 13.301 129.417 13.4787C129.131 13.6563 128.912 13.9219 128.791 14.2352C128.34 13.7972 127.802 13.4584 127.211 13.2408C126.62 13.0232 125.99 12.9316 125.361 12.972C124.52 12.9624 123.686 13.1323 122.916 13.4705C122.147 13.8086 121.459 14.307 120.899 14.9322C119.729 16.2567 119.084 17.96 119.084 19.7237C119.084 21.4874 119.729 23.1907 120.899 24.5152C121.493 25.13 122.211 25.6136 123.005 25.9348C123.8 26.2559 124.653 26.4075 125.51 26.3796C126.735 26.4287 127.931 25.9934 128.835 25.1686C128.962 25.4646 129.179 25.7136 129.455 25.8807C129.731 26.0479 130.053 26.1248 130.375 26.1008ZM173.39 21.4138C171.929 21.4138 171.579 23.2433 169.435 23.2433C168.963 23.2676 168.491 23.1951 168.049 23.0302C167.606 22.8654 167.202 22.6117 166.862 22.285C166.536 21.9353 166.283 21.5237 166.119 21.0747C165.955 20.6257 165.884 20.1485 165.909 19.6714C165.885 19.1952 165.956 18.7191 166.118 18.2704C166.28 17.8218 166.53 17.4097 166.854 17.0579C167.193 16.7272 167.598 16.4704 168.042 16.3039C168.486 16.1374 168.961 16.0649 169.435 16.0909C171.579 16.0909 171.929 17.9203 173.39 17.9203C173.608 17.9268 173.824 17.888 174.026 17.8064C174.228 17.7248 174.41 17.6022 174.562 17.4465C174.713 17.2907 174.83 17.1052 174.906 16.9018C174.981 16.6984 175.013 16.4815 175 16.2651C175 14.7579 172.445 12.9633 169.426 12.9633C168.504 12.9326 167.584 13.0839 166.721 13.4083C165.857 13.7327 165.067 14.224 164.395 14.8538C163.14 16.1358 162.438 17.8551 162.438 19.6453C162.438 21.4355 163.14 23.1548 164.395 24.4368C165.068 25.0635 165.859 25.5515 166.723 25.873C167.586 26.1944 168.505 26.3429 169.426 26.3099C172.445 26.3099 175 24.5675 175 23.0168C175.008 22.8021 174.972 22.5879 174.894 22.3876C174.816 22.1873 174.698 22.0051 174.546 21.8523C174.394 21.6996 174.212 21.5795 174.012 21.4996C173.812 21.4196 173.597 21.3815 173.381 21.3877L173.39 21.4138ZM139.694 26.3099C143.194 26.3099 145.495 24.7505 145.495 22.2066C145.495 17.1363 137.681 18.7741 137.681 16.8662C137.681 16.3348 138.399 15.934 139.431 15.934C141.251 15.934 141.986 16.8836 143.22 16.8836C143.406 16.9001 143.593 16.8766 143.769 16.8149C143.945 16.7531 144.105 16.6545 144.24 16.5257C144.374 16.3969 144.479 16.2408 144.548 16.0681C144.616 15.8954 144.647 15.7101 144.637 15.5246C144.637 13.7822 141.689 12.9633 139.58 12.9633C136.29 12.9633 134.181 14.7754 134.181 16.9707C134.181 22.0846 142.117 20.3945 142.117 22.2589C142.117 22.9907 141.242 23.3653 140 23.3653C137.139 23.3653 136.5 21.6229 135.179 21.6229C134.982 21.6204 134.787 21.6577 134.605 21.7326C134.423 21.8075 134.259 21.9183 134.121 22.0585C133.984 22.1986 133.876 22.365 133.805 22.5478C133.734 22.7305 133.701 22.9256 133.709 23.1213C133.709 24.7766 136.535 26.275 139.667 26.275L139.694 26.3099ZM158.917 11.8656C159.358 11.8828 159.79 11.7334 160.125 11.4474C160.44 11.1225 160.617 10.6883 160.617 10.2365C160.617 9.7846 160.44 9.35041 160.125 9.02551C159.785 8.71759 159.342 8.54694 158.882 8.54694C158.423 8.54694 157.98 8.71759 157.64 9.02551C157.324 9.35041 157.148 9.7846 157.148 10.2365C157.148 10.6883 157.324 11.1225 157.64 11.4474C157.974 11.764 158.421 11.9362 158.882 11.9266L158.917 11.8656ZM108.132 24.2103V18.6521C108.22 17.1423 107.725 15.6561 106.75 14.4966C106.272 13.985 105.687 13.583 105.038 13.3182C104.388 13.0535 103.689 12.9324 102.987 12.9633C102.246 12.905 101.502 13.0205 100.813 13.3004C100.125 13.5802 99.512 14.0168 99.0236 14.575C98.941 14.1924 98.7314 13.8488 98.4286 13.5993C98.0849 13.3424 97.66 13.217 97.2313 13.2458C96.8025 13.2745 96.3984 13.4556 96.0924 13.7561C95.7668 14.1327 95.5979 14.6187 95.6199 15.1151V24.2365C95.5952 24.7322 95.7681 25.2175 96.1011 25.5868C96.2646 25.7533 96.461 25.8842 96.6779 25.9711C96.8947 26.0581 97.1274 26.0993 97.3611 26.0921C97.5952 26.0997 97.8281 26.057 98.0441 25.9668C98.26 25.8766 98.4539 25.741 98.6124 25.5694C98.9442 25.1959 99.1169 24.7084 99.0936 24.2103V19.1923C99.0524 18.3605 99.3308 17.5444 99.8724 16.9098C100.143 16.6207 100.473 16.3932 100.84 16.2429C101.207 16.0925 101.602 16.0228 101.999 16.0386C102.37 16.0131 102.742 16.0711 103.087 16.2084C103.432 16.3456 103.742 16.5586 103.994 16.8314C104.485 17.4647 104.727 18.2544 104.676 19.0529V24.219C104.655 24.7158 104.831 25.2009 105.166 25.5694C105.332 25.7376 105.531 25.8695 105.751 25.9565C105.971 26.0436 106.207 26.0838 106.444 26.0747C106.676 26.0828 106.908 26.0402 107.123 25.9499C107.337 25.8597 107.53 25.7238 107.686 25.552C108.012 25.1754 108.181 24.6893 108.159 24.1929L108.132 24.2103ZM158.909 26.0747C159.144 26.0848 159.379 26.0432 159.597 25.9528C159.815 25.8625 160.01 25.7257 160.169 25.552C160.494 25.1754 160.663 24.6893 160.641 24.1929V15.2371C160.663 14.7407 160.494 14.2546 160.169 13.878C159.831 13.5476 159.377 13.3625 158.904 13.3625C158.431 13.3625 157.977 13.5476 157.64 13.878C157.314 14.2546 157.145 14.7407 157.167 15.2371V24.2103C157.145 24.7067 157.314 25.1928 157.64 25.5694C157.8 25.7438 157.997 25.881 158.216 25.9713C158.435 26.0616 158.672 26.1029 158.909 26.0921V26.0747ZM110.784 16.448H112.149V24.2103C112.127 24.7067 112.296 25.1928 112.621 25.5694C112.779 25.7436 112.975 25.8807 113.192 25.9711C113.41 26.0615 113.645 26.1028 113.881 26.0921C114.118 26.1029 114.355 26.0616 114.574 25.9713C114.793 25.881 114.99 25.7438 115.15 25.5694C115.475 25.1928 115.644 24.7067 115.622 24.2103V16.448H116.987C117.432 16.4746 117.87 16.3312 118.212 16.0473C118.366 15.9043 118.488 15.7299 118.568 15.5359C118.648 15.3419 118.685 15.133 118.676 14.9235C118.687 14.7127 118.652 14.502 118.575 14.3054C118.499 14.1087 118.381 13.9304 118.23 13.7822C117.886 13.4877 117.44 13.3378 116.987 13.364H115.622V10.4194C115.644 9.92302 115.475 9.43697 115.15 9.06036C114.988 8.88896 114.791 8.75432 114.572 8.66562C114.353 8.57693 114.117 8.53625 113.881 8.54636C113.646 8.53577 113.412 8.57627 113.194 8.66503C112.977 8.7538 112.781 8.88871 112.621 9.06036C112.296 9.43697 112.127 9.92302 112.149 10.4194V13.364H110.784C110.335 13.3377 109.893 13.4843 109.55 13.7735C109.395 13.9158 109.275 14.0904 109.196 14.2847C109.117 14.479 109.083 14.6882 109.095 14.8973C109.084 15.1069 109.118 15.3163 109.195 15.5116C109.272 15.707 109.39 15.8837 109.541 16.0299C109.885 16.3244 110.331 16.4743 110.784 16.448ZM89.4424 22.285C89.1406 22.5882 88.7814 22.8288 88.3857 22.9931C87.99 23.1573 87.5655 23.2418 87.1368 23.2418C86.708 23.2418 86.2835 23.1573 85.8878 22.9931C85.4921 22.8288 85.1329 22.5882 84.8311 22.285C84.2242 21.5519 83.9124 20.6205 83.9561 19.6714C83.9174 18.7231 84.2286 17.7934 84.8311 17.0579C85.1312 16.7502 85.4903 16.5056 85.8871 16.3385C86.2839 16.1715 86.7103 16.0854 87.1411 16.0854C87.5719 16.0854 87.9983 16.1715 88.3951 16.3385C88.7919 16.5056 89.151 16.7502 89.4511 17.0579C90.0522 17.7942 90.3632 18.7233 90.3261 19.6714C90.3665 20.62 90.0551 21.5503 89.4511 22.285H89.4424ZM91.8749 13.2421C91.5379 13.2103 91.1997 13.2894 90.9121 13.4672C90.6245 13.645 90.4033 13.9117 90.2824 14.2265C89.8331 13.7887 89.2962 13.45 88.7068 13.2324C88.1173 13.0147 87.4885 12.9231 86.8611 12.9633C86.0148 12.951 85.1757 13.1205 84.4011 13.4603C83.6264 13.8 82.9345 14.3021 82.3724 14.9322C81.1975 16.2542 80.549 17.9585 80.549 19.7237C80.549 21.4889 81.1975 23.1932 82.3724 24.5152C82.9661 25.1289 83.6825 25.6119 84.4752 25.933C85.268 26.2541 86.1195 26.4062 86.9749 26.3796C88.2004 26.4296 89.396 25.9942 90.2999 25.1686C90.4312 25.4682 90.6542 25.7187 90.937 25.8846C91.2199 26.0504 91.5481 26.1231 91.8749 26.0921C92.1073 26.0992 92.3386 26.0579 92.554 25.9709C92.7695 25.8839 92.9643 25.7531 93.1261 25.5868C93.4615 25.2184 93.6375 24.7332 93.6161 24.2365V15.1151C93.6381 14.6187 93.4692 14.1327 93.1436 13.7561C92.9824 13.5837 92.7853 13.4485 92.5662 13.3597C92.3471 13.2709 92.1112 13.2308 91.8749 13.2421ZM78.6361 8.66832H69.8861C69.6031 8.6274 69.3144 8.65282 69.043 8.74255C68.7716 8.83227 68.525 8.98384 68.3227 9.18518C68.1205 9.38652 67.9683 9.63208 67.8782 9.90231C67.7881 10.1725 67.7625 10.46 67.8036 10.7418V24.1406C67.7904 24.3989 67.8284 24.6573 67.9155 24.9009C68.0026 25.1446 68.137 25.3688 68.3111 25.5607C68.4882 25.7375 68.7001 25.876 68.9335 25.9675C69.1669 26.0589 69.4167 26.1013 69.6674 26.0921C69.915 26.1043 70.1624 26.0641 70.3932 25.974C70.624 25.8839 70.8329 25.746 71.0061 25.5694C71.356 25.1778 71.5354 24.6639 71.5049 24.1406V19.5408H77.3674C77.8348 19.5663 78.2954 19.4207 78.6624 19.1313C78.8246 18.983 78.9513 18.8003 79.033 18.5968C79.1148 18.3932 79.1496 18.174 79.1349 17.9552C79.1462 17.735 79.1108 17.5148 79.0309 17.3092C78.9509 17.1035 78.8284 16.917 78.6711 16.7617C78.3096 16.4539 77.8422 16.2978 77.3674 16.3261H71.5049V12.0747H78.6361C79.1382 12.1025 79.6312 11.9337 80.0099 11.6042C80.1755 11.4466 80.305 11.2553 80.3896 11.0433C80.4741 10.8313 80.5118 10.6036 80.4999 10.3759C80.5111 10.1419 80.4707 9.90833 80.3815 9.69159C80.2923 9.47485 80.1565 9.2802 79.9836 9.12134C79.6005 8.80139 79.1091 8.63933 78.6099 8.66832" fill="#E82649"/>
<path d="M53.5763 28.1045C53.131 27.9906 52.6676 27.9652 52.2124 28.0296C51.7573 28.094 51.3193 28.2471 50.9236 28.4801C50.5279 28.7131 50.1822 29.0215 49.9062 29.3875C49.6302 29.7536 49.4293 30.1702 49.315 30.6136L47.25 38.8724C47.0256 39.766 46.5075 40.5592 45.7782 41.1259C45.0489 41.6926 44.1502 42.0003 43.225 42H13.0113C12.0861 42.0003 11.1875 41.6926 10.4581 41.1259C9.72882 40.5592 9.21074 39.766 8.98628 38.8724L6.93003 30.6136C6.69797 29.7124 6.11588 28.94 5.31182 28.4662C4.50775 27.9924 3.54758 27.8561 2.64253 28.0871C1.73748 28.3182 0.961686 28.8977 0.485812 29.6983C0.00993894 30.4988 -0.127032 31.4548 0.105033 32.3559L2.17003 40.58C2.63428 42.4325 3.56959 44.1349 4.88597 45.5234C6.20234 46.9118 7.85547 47.9396 9.68628 48.5078L8.89003 51.6615C8.77857 52.1077 8.75647 52.5713 8.82499 53.026C8.89351 53.4807 9.05131 53.9175 9.28937 54.3115C9.52744 54.7055 9.84111 55.0489 10.2125 55.3221C10.5839 55.5954 11.0056 55.7932 11.4538 55.9042C11.9019 56.0151 12.3676 56.0371 12.8243 55.9689C13.281 55.9007 13.7197 55.7436 14.1154 55.5066C14.5111 55.2695 14.856 54.9572 15.1305 54.5875C15.4049 54.2177 15.6036 53.7978 15.715 53.3516L16.8088 48.9956H39.4363L40.53 53.3516C40.6415 53.7972 40.84 54.2166 41.1143 54.5858C41.3885 54.955 41.7331 55.2668 42.1284 55.5035C42.5237 55.7401 42.9619 55.8969 43.4181 55.9649C43.8742 56.0329 44.3393 56.0108 44.7869 55.8998C45.2345 55.7888 45.6557 55.5912 46.0265 55.3181C46.3974 55.0451 46.7106 54.702 46.9482 54.3084C47.1859 53.9148 47.3434 53.4785 47.4117 53.0244C47.48 52.5702 47.4577 52.1071 47.3463 51.6615L46.5588 48.4991C48.389 47.9324 50.0418 46.9062 51.3582 45.5192C52.6746 44.1323 53.6102 42.4313 54.075 40.58L56.14 32.3559C56.2538 31.9097 56.2775 31.4454 56.21 30.99C56.1425 30.5345 55.985 30.0969 55.7466 29.7024C55.5082 29.3079 55.1937 28.9644 54.8212 28.6916C54.4486 28.4188 54.0255 28.2223 53.5763 28.1132V28.1045ZM39.3225 25.9614C37.3888 28.6534 32.97 30.7878 28.3325 31.2757C25.5763 31.5632 20.37 31.5109 16.4325 27.9303C16.0918 27.6203 15.6931 27.3801 15.2592 27.2234C14.8253 27.0668 14.3646 26.9968 13.9035 27.0174C13.4424 27.0381 12.9899 27.1489 12.5718 27.3437C12.1538 27.5384 11.7783 27.8132 11.4669 28.1525C11.1555 28.4917 10.9143 28.8886 10.757 29.3207C10.5996 29.7527 10.5293 30.2114 10.5501 30.6705C10.5708 31.1296 10.6821 31.5801 10.8777 31.9963C11.0733 32.4126 11.3493 32.7864 11.69 33.0964C15.6996 36.6247 20.9005 38.5137 26.25 38.3846C27.1775 38.3846 28.1225 38.3323 29.085 38.2365C35.805 37.5308 41.93 34.3858 45.0538 30.0386C45.3227 29.665 45.515 29.2424 45.6199 28.7949C45.7247 28.3473 45.74 27.8836 45.6648 27.4302C45.5897 26.9767 45.4255 26.5425 45.1818 26.1522C44.9381 25.7619 44.6196 25.4233 44.2444 25.1556C43.8692 24.8878 43.4448 24.6963 42.9953 24.5919C42.5458 24.4876 42.08 24.4723 41.6246 24.5472C41.1692 24.622 40.733 24.7854 40.341 25.0281C39.9491 25.2707 39.6089 25.5879 39.34 25.9614H39.3225ZM49.2275 17.5457C48.5353 17.5457 47.8586 17.7501 47.283 18.133C46.7075 18.5159 46.2589 19.0602 45.994 19.6969C45.729 20.3337 45.6597 21.0344 45.7948 21.7103C45.9298 22.3863 46.2632 23.0072 46.7527 23.4946C47.2421 23.9819 47.8658 24.3138 48.5447 24.4483C49.2236 24.5827 49.9274 24.5137 50.5669 24.25C51.2065 23.9862 51.7531 23.5396 52.1377 22.9665C52.5223 22.3934 52.7275 21.7197 52.7275 21.0305C52.7275 20.1063 52.3588 19.2199 51.7024 18.5664C51.046 17.9129 50.1558 17.5457 49.2275 17.5457ZM6.25628 21.9017C6.37119 22.3473 6.57312 22.766 6.85056 23.1339C7.12799 23.5018 7.47549 23.8117 7.87322 24.0459C8.27094 24.2801 8.7111 24.434 9.16857 24.4989C9.62604 24.5637 10.0918 24.5382 10.5394 24.4238C10.987 24.3094 11.4075 24.1083 11.777 23.8321C12.1466 23.5558 12.4578 23.2099 12.693 22.8139C12.9283 22.4179 13.0828 21.9796 13.148 21.5242C13.2131 21.0687 13.1874 20.6049 13.0725 20.1593L10.9988 11.9004C12.0582 11.1987 13.1665 10.5727 14.315 10.0274C18.6307 7.99887 23.3503 6.96556 28.1225 7.00435C32.894 6.96373 37.6134 7.99402 41.93 10.0187C43.6842 10.8235 45.3279 11.8482 46.8213 13.0678C47.158 13.3819 47.5535 13.6268 47.9852 13.7887C48.417 13.9505 48.8765 14.0261 49.3376 14.0112C49.7987 13.9962 50.2523 13.891 50.6726 13.7014C51.0928 13.5119 51.4715 13.2419 51.7869 12.9067C52.1023 12.5714 52.3483 12.1777 52.5109 11.7478C52.6735 11.3179 52.7494 10.8604 52.7344 10.4013C52.7194 9.94218 52.6136 9.49053 52.4233 9.07211C52.233 8.65369 51.9617 8.2767 51.625 7.96265C51.275 7.6316 42.875 0.026123 28.1488 0.026123C13.4225 0.026123 4.99628 7.60546 4.64628 7.96265C4.18273 8.38745 3.84294 8.92896 3.66275 9.53002C3.48257 10.1311 3.46867 10.7694 3.62253 11.3777L6.25628 21.9017Z" fill="#E82649"/>
</g>
<defs>
<clipPath id="clip0_16875_1102">
<rect width="175" height="56" fill="white"/>
</clipPath>
</defs>
</svg>
